<svg width="128" height="32" viewBox="0 0 128 32" fill="none" xmlns="http://www.w3.org/2000/svg">
<path d="M0 10C0 4.47715 4.47715 0 10 0H128V32H10C4.47715 32 0 27.5228 0 22V10Z" fill="white"/>
<path d="M8.76069 22.16C7.87535 22.16 7.04869 22.0213 6.28069 21.744C5.52335 21.456 4.85669 21.056 4.28069 20.544C3.71535 20.032 3.27802 19.424 2.96869 18.72C2.65935 18.0053 2.50469 17.216 2.50469 16.352C2.50469 15.5093 2.66469 14.736 2.98469 14.032C3.31535 13.328 3.76335 12.72 4.32869 12.208C4.89402 11.696 5.56069 11.296 6.32869 11.008C7.09669 10.72 7.92335 10.576 8.80869 10.576C9.41669 10.576 10.0034 10.6507 10.5687 10.8C11.1447 10.9493 11.678 11.1573 12.1687 11.424C12.6594 11.6907 13.0754 11.9947 13.4167 12.336L11.8007 14.352C11.5447 14.1067 11.2674 13.8933 10.9687 13.712C10.67 13.52 10.334 13.3707 9.96069 13.264C9.58735 13.1467 9.17669 13.088 8.72869 13.088C8.29135 13.088 7.86469 13.1627 7.44869 13.312C7.03269 13.4613 6.66469 13.68 6.34469 13.968C6.02469 14.2453 5.76869 14.592 5.57669 15.008C5.39535 15.4133 5.30469 15.872 5.30469 16.384C5.30469 16.896 5.40069 17.3547 5.59269 17.76C5.78469 18.1653 6.04602 18.512 6.37669 18.8C6.71802 19.0773 7.11269 19.2907 7.56069 19.44C8.00869 19.5893 8.49402 19.664 9.01669 19.664C9.47535 19.664 9.89135 19.6 10.2647 19.472C10.638 19.344 10.974 19.1893 11.2727 19.008C11.5714 18.816 11.838 18.6133 12.0727 18.4L13.3687 20.496C13.0807 20.7733 12.6967 21.04 12.2167 21.296C11.7367 21.552 11.198 21.76 10.6007 21.92C10.0034 22.08 9.39002 22.16 8.76069 22.16ZM24.1436 22V10.8H26.8636V22H24.1436ZM16.3036 22V10.8H19.0236V22H16.3036ZM17.3596 17.664L17.3756 15.232H25.5836V17.664H17.3596ZM29.2051 22L34.0851 10.8H36.5011L41.3491 22H38.5651L35.9731 15.936C35.8771 15.7013 35.7811 15.4667 35.6851 15.232C35.5997 14.9973 35.5144 14.7573 35.4291 14.512C35.3437 14.2667 35.2637 14.0267 35.1891 13.792C35.1144 13.5573 35.0451 13.3333 34.9811 13.12L35.5251 13.104C35.4611 13.36 35.3864 13.6053 35.3011 13.84C35.2264 14.0747 35.1464 14.3093 35.0611 14.544C34.9757 14.768 34.8851 14.9973 34.7891 15.232C34.6931 15.4667 34.5971 15.7067 34.5011 15.952L31.9091 22H29.2051ZM31.4931 19.92L32.3731 17.872H38.1331L38.7891 19.92H31.4931ZM43.6938 22V19.664H46.0298V13.136H43.6938V10.8H51.1018V13.136H48.7498V19.664H51.1018V22H43.6938ZM54.9911 22V10.8H57.4871L64.2551 18.8L63.7911 18.72C63.7271 18.3467 63.6791 17.9893 63.6471 17.648C63.6151 17.3067 63.5831 16.976 63.5511 16.656C63.5297 16.336 63.5084 16.016 63.4871 15.696C63.4764 15.376 63.4711 15.04 63.4711 14.688C63.4711 14.336 63.4711 13.9627 63.4711 13.568V10.8H66.1111V22H63.5831L56.5591 13.744L57.3111 13.856C57.3431 14.2293 57.3751 14.5653 57.4071 14.864C57.4497 15.1627 57.4817 15.4453 57.5031 15.712C57.5351 15.968 57.5564 16.2293 57.5671 16.496C57.5884 16.752 57.6044 17.024 57.6151 17.312C57.6257 17.6 57.6311 17.9147 57.6311 18.256V22H54.9911ZM70.0067 22V10.8H78.7107V13.12H72.6467V19.68H78.8707V22H70.0067ZM71.3507 17.408V15.2H77.9907V17.408H71.3507ZM82.3036 22V10.8H87.5036C88.4102 10.8 89.2316 10.944 89.9676 11.232C90.7036 11.5093 91.3329 11.904 91.8556 12.416C92.3889 12.928 92.7942 13.5253 93.0716 14.208C93.3489 14.88 93.4876 15.6107 93.4876 16.4C93.4876 17.2 93.3489 17.9413 93.0716 18.624C92.7942 19.3067 92.3889 19.8987 91.8556 20.4C91.3329 20.9013 90.7036 21.296 89.9676 21.584C89.2316 21.8613 88.4102 22 87.5036 22H82.3036ZM85.0236 20.144L84.6556 19.6H87.4236C87.9569 19.6 88.4262 19.52 88.8316 19.36C89.2369 19.1893 89.5729 18.96 89.8396 18.672C90.1169 18.384 90.3302 18.048 90.4796 17.664C90.6289 17.28 90.7036 16.8587 90.7036 16.4C90.7036 15.952 90.6289 15.536 90.4796 15.152C90.3302 14.7573 90.1169 14.416 89.8396 14.128C89.5729 13.84 89.2369 13.616 88.8316 13.456C88.4262 13.2853 87.9569 13.2 87.4236 13.2H84.6076L85.0236 12.688V20.144Z" fill="#B33948"/>
<g clip-path="url(#clip0_3_292)">
<rect x="96" width="32" height="32" fill="#B33948"/>
<path d="M103 7C103 7 103 6.49819 103 1.98192C103 -2.53434 110 -2.78525 110 1.98192C110 6.7491 110 7 110 7" stroke="white" stroke-width="3" stroke-linecap="square"/>
<path d="M110 12C110 12 110 12.5018 110 17.0181C110 21.5343 103 21.7852 103 17.0181C103 12.2509 103 12 103 12" stroke="white" stroke-width="3" stroke-linecap="square"/>
<path d="M106.5 17L106.5 2" stroke="white" stroke-width="2" stroke-linecap="round"/>
<path d="M116 10.5V22" stroke="white" stroke-width="3"/>
<path d="M118.675 12.0002C118.675 12.0002 115.082 11.9999 119.018 12C122.954 12.0001 123.072 17 119.136 17C115.2 17 118.793 17 118.793 17" stroke="white" stroke-width="3"/>
</g>
<defs>
<clipPath id="clip0_3_292">
<rect width="32" height="32" fill="white" transform="translate(96)"/>
</clipPath>
</defs>
</svg>
