<svg width="64" height="16" viewBox="0 0 64 16" fill="none" xmlns="http://www.w3.org/2000/svg">
<path d="M0 5C0 2.23858 2.23858 0 5 0H64V16H5C2.23858 16 0 13.7614 0 11V5Z" fill="white"/>
<g clip-path="url(#clip0_3_433)">
<rect x="48" width="16" height="16" fill="black"/>
<path d="M55 3.5C55 3.5 55 2.6253 55 0.5C55 -1.6253 52 -1.74337 52 0.5C52 2.74337 52 3.5 52 3.5" stroke="white" stroke-width="1.5" stroke-linecap="square"/>
<g filter="url(#filter0_dd_3_433)">
<path d="M55 5.5C55 5.5 55 6.3747 55 8.5C55 10.6253 52 10.7434 52 8.5C52 6.25663 52 5.5 52 5.5" stroke="white" stroke-width="1.5" stroke-linecap="square"/>
</g>
<path d="M58 5V11" stroke="white" stroke-width="1.5"/>
<path d="M58.2857 5.7664C58.2857 5.7664 57.2246 5.76627 59.1925 5.76633C61.1605 5.76638 61.1663 8.65749 59.1983 8.6575C57.2303 8.65751 58.2914 8.6575 58.2914 8.6575" stroke="white" stroke-width="1.5"/>
</g>
<path d="M4.38034 11.08C3.93768 11.08 3.52434 11.0107 3.14034 10.872C2.76168 10.728 2.42834 10.528 2.14034 10.272C1.85768 10.016 1.63901 9.712 1.48434 9.36C1.32968 9.00267 1.25234 8.608 1.25234 8.176C1.25234 7.75467 1.33234 7.368 1.49234 7.016C1.65768 6.664 1.88168 6.36 2.16434 6.104C2.44701 5.848 2.78034 5.648 3.16434 5.504C3.54834 5.36 3.96168 5.288 4.40434 5.288C4.70834 5.288 5.00168 5.32533 5.28434 5.4C5.57234 5.47467 5.83901 5.57867 6.08434 5.712C6.32968 5.84533 6.53768 5.99733 6.70834 6.168L5.90034 7.176C5.77234 7.05333 5.63368 6.94667 5.48434 6.856C5.33501 6.76 5.16701 6.68533 4.98034 6.632C4.79368 6.57333 4.58834 6.544 4.36434 6.544C4.14568 6.544 3.93234 6.58133 3.72434 6.656C3.51634 6.73067 3.33234 6.84 3.17234 6.984C3.01234 7.12267 2.88434 7.296 2.78834 7.504C2.69768 7.70667 2.65234 7.936 2.65234 8.192C2.65234 8.448 2.70034 8.67733 2.79634 8.88C2.89234 9.08267 3.02301 9.256 3.18834 9.4C3.35901 9.53867 3.55634 9.64533 3.78034 9.72C4.00434 9.79467 4.24701 9.832 4.50834 9.832C4.73768 9.832 4.94568 9.8 5.13234 9.736C5.31901 9.672 5.48701 9.59467 5.63634 9.504C5.78568 9.408 5.91901 9.30667 6.03634 9.2L6.68434 10.248C6.54034 10.3867 6.34834 10.52 6.10834 10.648C5.86834 10.776 5.59901 10.88 5.30034 10.96C5.00168 11.04 4.69501 11.08 4.38034 11.08ZM12.0718 11V5.4H13.4318V11H12.0718ZM8.15178 11V5.4H9.51178V11H8.15178ZM8.67978 8.832L8.68778 7.616H12.7918V8.832H8.67978ZM14.6025 11L17.0425 5.4H18.2505L20.6745 11H19.2825L17.9865 7.968C17.9385 7.85067 17.8905 7.73333 17.8425 7.616C17.7999 7.49867 17.7572 7.37867 17.7145 7.256C17.6719 7.13333 17.6319 7.01333 17.5945 6.896C17.5572 6.77867 17.5225 6.66667 17.4905 6.56L17.7625 6.552C17.7305 6.68 17.6932 6.80267 17.6505 6.92C17.6132 7.03733 17.5732 7.15467 17.5305 7.272C17.4879 7.384 17.4425 7.49867 17.3945 7.616C17.3465 7.73333 17.2985 7.85333 17.2505 7.976L15.9545 11H14.6025ZM15.7465 9.96L16.1865 8.936H19.0665L19.3945 9.96H15.7465ZM21.8469 11V9.832H23.0149V6.568H21.8469V5.4H25.5509V6.568H24.3749V9.832H25.5509V11H21.8469ZM27.4955 11V5.4H28.7435L32.1275 9.4L31.8955 9.36C31.8635 9.17333 31.8395 8.99467 31.8235 8.824C31.8075 8.65333 31.7915 8.488 31.7755 8.328C31.7649 8.168 31.7542 8.008 31.7435 7.848C31.7382 7.688 31.7355 7.52 31.7355 7.344C31.7355 7.168 31.7355 6.98133 31.7355 6.784V5.4H33.0555V11H31.7915L28.2795 6.872L28.6555 6.928C28.6715 7.11467 28.6875 7.28267 28.7035 7.432C28.7249 7.58133 28.7409 7.72267 28.7515 7.856C28.7675 7.984 28.7782 8.11467 28.7835 8.248C28.7942 8.376 28.8022 8.512 28.8075 8.656C28.8129 8.8 28.8155 8.95733 28.8155 9.128V11H27.4955ZM35.0033 11V5.4H39.3553V6.56H36.3233V9.84H39.4353V11H35.0033ZM35.6753 8.704V7.6H38.9953V8.704H35.6753ZM41.1518 11V5.4H43.7518C44.2051 5.4 44.6158 5.472 44.9838 5.616C45.3518 5.75467 45.6664 5.952 45.9278 6.208C46.1944 6.464 46.3971 6.76267 46.5358 7.104C46.6744 7.44 46.7438 7.80533 46.7438 8.2C46.7438 8.6 46.6744 8.97067 46.5358 9.312C46.3971 9.65333 46.1944 9.94933 45.9278 10.2C45.6664 10.4507 45.3518 10.648 44.9838 10.792C44.6158 10.9307 44.2051 11 43.7518 11H41.1518ZM42.5118 10.072L42.3278 9.8H43.7118C43.9784 9.8 44.2131 9.76 44.4158 9.68C44.6184 9.59467 44.7864 9.48 44.9198 9.336C45.0584 9.192 45.1651 9.024 45.2398 8.832C45.3144 8.64 45.3518 8.42933 45.3518 8.2C45.3518 7.976 45.3144 7.768 45.2398 7.576C45.1651 7.37867 45.0584 7.208 44.9198 7.064C44.7864 6.92 44.6184 6.808 44.4158 6.728C44.2131 6.64267 43.9784 6.6 43.7118 6.6H42.3038L42.5118 6.344V10.072Z" fill="black"/>
<defs>
<filter id="filter0_dd_3_433" x="51" y="3.74998" width="5" height="7.75002" filterUnits="userSpaceOnUse" color-interpolation-filters="sRGB">
<feFlood flood-opacity="0" result="BackgroundImageFix"/>
<feColorMatrix in="SourceAlpha" type="matrix" values="0 0 0 0 0 0 0 0 0 0 0 0 0 0 0 0 0 0 127 0" result="hardAlpha"/>
<feOffset dy="0.5"/>
<feComposite in2="hardAlpha" operator="out"/>
<feColorMatrix type="matrix" values="0 0 0 0 0 0 0 0 0 0 0 0 0 0 0 0 0 0 1 0"/>
<feBlend mode="normal" in2="BackgroundImageFix" result="effect1_dropShadow_3_433"/>
<feColorMatrix in="SourceAlpha" type="matrix" values="0 0 0 0 0 0 0 0 0 0 0 0 0 0 0 0 0 0 127 0" result="hardAlpha"/>
<feOffset dy="-1"/>
<feComposite in2="hardAlpha" operator="out"/>
<feColorMatrix type="matrix" values="0 0 0 0 0 0 0 0 0 0 0 0 0 0 0 0 0 0 1 0"/>
<feBlend mode="normal" in2="effect1_dropShadow_3_433" result="effect2_dropShadow_3_433"/>
<feBlend mode="normal" in="SourceGraphic" in2="effect2_dropShadow_3_433" result="shape"/>
</filter>
<clipPath id="clip0_3_433">
<rect width="16" height="16" fill="white" transform="translate(48)"/>
</clipPath>
</defs>
</svg>
