<svg width="64" height="64" viewBox="0 0 64 64" fill="none" xmlns="http://www.w3.org/2000/svg">
<g clip-path="url(#clip0_3_332)">
<rect width="64" height="64" fill="#B33948"/>
<path d="M14 13C14 13 14.0001 12 14 3C13.9999 -6 28 -6.5 28 3C28 12.5 28 13 28 13" stroke="white" stroke-width="6" stroke-linecap="square"/>
<path d="M28 23C28 23 27.9999 24 28 33C28.0001 42 14 42.5 14 33C14 23.5 14 23 14 23" stroke="white" stroke-width="6" stroke-linecap="square"/>
<path d="M21 3L21 33" stroke="white" stroke-width="5" stroke-linecap="round"/>
<line x1="39" y1="20" x2="39" y2="43" stroke="white" stroke-width="6"/>
<path d="M42 23.0002C42 23.0002 36.9998 23 44.4998 23.0001C51.9999 23.0002 52 33.0002 44.4998 33.0002C36.9997 33.0002 42 33.0002 42 33.0002" stroke="white" stroke-width="6"/>
</g>
<defs>
<clipPath id="clip0_3_332">
<rect width="64" height="64" fill="white"/>
</clipPath>
</defs>
</svg>
