<svg width="256" height="64" viewBox="0 0 256 64" fill="none" xmlns="http://www.w3.org/2000/svg">
<path d="M0 10C0 4.47715 4.47715 0 10 0H256V64H10C4.47715 64 0 59.5228 0 54V10Z" fill="white"/>
<path d="M17.5214 44.32C15.7507 44.32 14.0974 44.0427 12.5614 43.488C11.0467 42.912 9.71338 42.112 8.56138 41.088C7.43071 40.064 6.55604 38.848 5.93738 37.44C5.31871 36.0107 5.00938 34.432 5.00938 32.704C5.00938 31.0187 5.32938 29.472 5.96938 28.064C6.63071 26.656 7.52671 25.44 8.65738 24.416C9.78804 23.392 11.1214 22.592 12.6574 22.016C14.1934 21.44 15.8467 21.152 17.6174 21.152C18.8334 21.152 20.0067 21.3013 21.1374 21.6C22.2894 21.8987 23.356 22.3147 24.3374 22.848C25.3187 23.3813 26.1507 23.9893 26.8334 24.672L23.6014 28.704C23.0894 28.2133 22.5347 27.7867 21.9374 27.424C21.34 27.04 20.668 26.7413 19.9214 26.528C19.1747 26.2933 18.3534 26.176 17.4574 26.176C16.5827 26.176 15.7294 26.3253 14.8974 26.624C14.0654 26.9227 13.3294 27.36 12.6894 27.936C12.0494 28.4907 11.5374 29.184 11.1534 30.016C10.7907 30.8267 10.6094 31.744 10.6094 32.768C10.6094 33.792 10.8014 34.7093 11.1854 35.52C11.5694 36.3307 12.092 37.024 12.7534 37.6C13.436 38.1547 14.2254 38.5813 15.1214 38.88C16.0174 39.1787 16.988 39.328 18.0334 39.328C18.9507 39.328 19.7827 39.2 20.5294 38.944C21.276 38.688 21.948 38.3787 22.5454 38.016C23.1427 37.632 23.676 37.2267 24.1454 36.8L26.7374 40.992C26.1614 41.5467 25.3934 42.08 24.4334 42.592C23.4734 43.104 22.396 43.52 21.2014 43.84C20.0067 44.16 18.78 44.32 17.5214 44.32ZM48.2871 44V21.6H53.7271V44H48.2871ZM32.6071 44V21.6H38.0471V44H32.6071ZM34.7191 35.328L34.7511 30.464H51.1671V35.328H34.7191ZM58.4101 44L68.1701 21.6H73.0021L82.6981 44H77.1301L71.9461 31.872C71.7541 31.4027 71.5621 30.9333 71.3701 30.464C71.1995 29.9947 71.0288 29.5147 70.8581 29.024C70.6875 28.5333 70.5275 28.0533 70.3781 27.584C70.2288 27.1147 70.0901 26.6667 69.9621 26.24L71.0501 26.208C70.9221 26.72 70.7728 27.2107 70.6021 27.68C70.4528 28.1493 70.2928 28.6187 70.1221 29.088C69.9515 29.536 69.7701 29.9947 69.5781 30.464C69.3861 30.9333 69.1941 31.4133 69.0021 31.904L63.8181 44H58.4101ZM62.9861 39.84L64.7461 35.744H76.2661L77.5781 39.84H62.9861ZM87.3876 44V39.328H92.0596V26.272H87.3876V21.6H102.204V26.272H97.4996V39.328H102.204V44H87.3876ZM109.982 44V21.6H114.974L128.51 37.6L127.582 37.44C127.454 36.6933 127.358 35.9787 127.294 35.296C127.23 34.6133 127.166 33.952 127.102 33.312C127.059 32.672 127.017 32.032 126.974 31.392C126.953 30.752 126.942 30.08 126.942 29.376C126.942 28.672 126.942 27.9253 126.942 27.136V21.6H132.222V44H127.166L113.118 27.488L114.622 27.712C114.686 28.4587 114.75 29.1307 114.814 29.728C114.899 30.3253 114.963 30.8907 115.006 31.424C115.07 31.936 115.113 32.4587 115.134 32.992C115.177 33.504 115.209 34.048 115.23 34.624C115.251 35.2 115.262 35.8293 115.262 36.512V44H109.982ZM140.013 44V21.6H157.421V26.24H145.293V39.36H157.741V44H140.013ZM142.701 34.816V30.4H155.981V34.816H142.701ZM164.607 44V21.6H175.007C176.82 21.6 178.463 21.888 179.935 22.464C181.407 23.0187 182.666 23.808 183.711 24.832C184.778 25.856 185.588 27.0507 186.143 28.416C186.698 29.76 186.975 31.2213 186.975 32.8C186.975 34.4 186.698 35.8827 186.143 37.248C185.588 38.6133 184.778 39.7973 183.711 40.8C182.666 41.8027 181.407 42.592 179.935 43.168C178.463 43.7227 176.82 44 175.007 44H164.607ZM170.047 40.288L169.311 39.2H174.847C175.914 39.2 176.852 39.04 177.663 38.72C178.474 38.3787 179.146 37.92 179.679 37.344C180.234 36.768 180.66 36.096 180.959 35.328C181.258 34.56 181.407 33.7173 181.407 32.8C181.407 31.904 181.258 31.072 180.959 30.304C180.66 29.5147 180.234 28.832 179.679 28.256C179.146 27.68 178.474 27.232 177.663 26.912C176.852 26.5707 175.914 26.4 174.847 26.4H169.215L170.047 25.376V40.288Z" fill="#B33948"/>
<g clip-path="url(#clip0_3_272)">
<rect x="192" width="64" height="64" fill="#B33948"/>
<path d="M206 13C206 13 206 12 206 3C206 -6 220 -6.5 220 3C220 12.5 220 13 220 13" stroke="white" stroke-width="6" stroke-linecap="square"/>
<path d="M220 23C220 23 220 24 220 33C220 42 206 42.5 206 33C206 23.5 206 23 206 23" stroke="white" stroke-width="6" stroke-linecap="square"/>
<path d="M213 3L213 33" stroke="white" stroke-width="5" stroke-linecap="round"/>
<line x1="231" y1="20" x2="231" y2="43" stroke="white" stroke-width="6"/>
<path d="M234 23.0002C234 23.0002 229 23 236.5 23.0001C244 23.0002 244 33.0002 236.5 33.0002C229 33.0002 234 33.0002 234 33.0002" stroke="white" stroke-width="6"/>
</g>
<defs>
<clipPath id="clip0_3_272">
<rect width="64" height="64" fill="white" transform="translate(192)"/>
</clipPath>
</defs>
</svg>
